<mxfile host="app.diagrams.net" modified="2023-09-07T12:10:45.067Z" agent="Mozilla/5.0 (Windows NT 10.0; Win64; x64; rv:109.0) Gecko/20100101 Firefox/116.0" etag="jsHREQVdntN4ozipXI_c" version="21.7.2" type="device">
  <diagram name="Page-1" id="KqAHrgrfPF-O4Q2UCdoI">
    <mxGraphModel dx="1050" dy="523" grid="1" gridSize="10" guides="1" tooltips="1" connect="1" arrows="1" fold="1" page="1" pageScale="1" pageWidth="850" pageHeight="1100" math="0" shadow="0">
      <root>
        <mxCell id="0" />
        <mxCell id="1" parent="0" />
        <mxCell id="451BlDNpqoZqQwi88xqd-1" value="" style="whiteSpace=wrap;html=1;aspect=fixed;" vertex="1" parent="1">
          <mxGeometry x="70" y="90" width="230" height="230" as="geometry" />
        </mxCell>
        <mxCell id="451BlDNpqoZqQwi88xqd-4" value="" style="whiteSpace=wrap;html=1;aspect=fixed;" vertex="1" parent="1">
          <mxGeometry x="380" y="90" width="220" height="220" as="geometry" />
        </mxCell>
        <mxCell id="451BlDNpqoZqQwi88xqd-5" value="" style="whiteSpace=wrap;html=1;aspect=fixed;" vertex="1" parent="1">
          <mxGeometry x="380" y="380" width="240" height="240" as="geometry" />
        </mxCell>
        <mxCell id="451BlDNpqoZqQwi88xqd-9" value="" style="endArrow=none;html=1;rounded=0;exitX=1;exitY=0.25;exitDx=0;exitDy=0;" edge="1" parent="1" source="451BlDNpqoZqQwi88xqd-5">
          <mxGeometry width="50" height="50" relative="1" as="geometry">
            <mxPoint x="460" y="440" as="sourcePoint" />
            <mxPoint x="380" y="440" as="targetPoint" />
          </mxGeometry>
        </mxCell>
        <mxCell id="451BlDNpqoZqQwi88xqd-10" value="" style="endArrow=none;html=1;rounded=0;" edge="1" parent="1" target="451BlDNpqoZqQwi88xqd-4">
          <mxGeometry width="50" height="50" relative="1" as="geometry">
            <mxPoint x="380" y="160" as="sourcePoint" />
            <mxPoint x="430" y="110" as="targetPoint" />
          </mxGeometry>
        </mxCell>
        <mxCell id="451BlDNpqoZqQwi88xqd-11" value="" style="endArrow=none;html=1;rounded=0;entryX=0;entryY=0.217;entryDx=0;entryDy=0;entryPerimeter=0;exitX=1.004;exitY=0.213;exitDx=0;exitDy=0;exitPerimeter=0;" edge="1" parent="1" source="451BlDNpqoZqQwi88xqd-4" target="451BlDNpqoZqQwi88xqd-4">
          <mxGeometry width="50" height="50" relative="1" as="geometry">
            <mxPoint x="600" y="140" as="sourcePoint" />
            <mxPoint x="390" y="140" as="targetPoint" />
          </mxGeometry>
        </mxCell>
        <mxCell id="451BlDNpqoZqQwi88xqd-12" value="" style="endArrow=none;html=1;rounded=0;exitX=1.004;exitY=0.213;exitDx=0;exitDy=0;exitPerimeter=0;" edge="1" parent="1" source="451BlDNpqoZqQwi88xqd-1">
          <mxGeometry width="50" height="50" relative="1" as="geometry">
            <mxPoint x="290" y="140" as="sourcePoint" />
            <mxPoint x="70" y="140" as="targetPoint" />
          </mxGeometry>
        </mxCell>
        <mxCell id="451BlDNpqoZqQwi88xqd-13" value="Module" style="text;html=1;strokeColor=none;fillColor=none;align=center;verticalAlign=middle;whiteSpace=wrap;rounded=0;fontSize=28;" vertex="1" parent="1">
          <mxGeometry x="380" y="390" width="240" height="40" as="geometry" />
        </mxCell>
        <mxCell id="451BlDNpqoZqQwi88xqd-14" value="Student" style="text;html=1;strokeColor=none;fillColor=none;align=center;verticalAlign=middle;whiteSpace=wrap;rounded=0;fontSize=24;" vertex="1" parent="1">
          <mxGeometry x="80" y="100" width="210" height="30" as="geometry" />
        </mxCell>
        <mxCell id="451BlDNpqoZqQwi88xqd-15" value="Registration" style="text;html=1;strokeColor=none;fillColor=none;align=center;verticalAlign=middle;whiteSpace=wrap;rounded=0;fontSize=24;" vertex="1" parent="1">
          <mxGeometry x="390" y="90" width="210" height="40" as="geometry" />
        </mxCell>
        <mxCell id="451BlDNpqoZqQwi88xqd-16" value="" style="endArrow=none;html=1;rounded=0;exitX=1.004;exitY=0.213;exitDx=0;exitDy=0;exitPerimeter=0;" edge="1" parent="1">
          <mxGeometry width="50" height="50" relative="1" as="geometry">
            <mxPoint x="301" y="180" as="sourcePoint" />
            <mxPoint x="70" y="181" as="targetPoint" />
          </mxGeometry>
        </mxCell>
        <mxCell id="451BlDNpqoZqQwi88xqd-18" value="" style="endArrow=none;html=1;rounded=0;entryX=0;entryY=0.217;entryDx=0;entryDy=0;entryPerimeter=0;exitX=1.004;exitY=0.213;exitDx=0;exitDy=0;exitPerimeter=0;" edge="1" parent="1">
          <mxGeometry width="50" height="50" relative="1" as="geometry">
            <mxPoint x="610" y="180" as="sourcePoint" />
            <mxPoint x="379" y="181" as="targetPoint" />
          </mxGeometry>
        </mxCell>
        <mxCell id="451BlDNpqoZqQwi88xqd-19" value="" style="endArrow=none;html=1;rounded=0;exitX=1;exitY=0.25;exitDx=0;exitDy=0;" edge="1" parent="1">
          <mxGeometry width="50" height="50" relative="1" as="geometry">
            <mxPoint x="620" y="480" as="sourcePoint" />
            <mxPoint x="380" y="480" as="targetPoint" />
          </mxGeometry>
        </mxCell>
        <mxCell id="451BlDNpqoZqQwi88xqd-20" value="" style="endArrow=none;html=1;rounded=0;" edge="1" parent="1">
          <mxGeometry width="50" height="50" relative="1" as="geometry">
            <mxPoint x="420" y="480" as="sourcePoint" />
            <mxPoint x="420" y="440" as="targetPoint" />
          </mxGeometry>
        </mxCell>
        <mxCell id="451BlDNpqoZqQwi88xqd-21" value="" style="endArrow=none;html=1;rounded=0;" edge="1" parent="1">
          <mxGeometry width="50" height="50" relative="1" as="geometry">
            <mxPoint x="420" y="180" as="sourcePoint" />
            <mxPoint x="420" y="140" as="targetPoint" />
          </mxGeometry>
        </mxCell>
        <mxCell id="451BlDNpqoZqQwi88xqd-22" value="" style="endArrow=none;html=1;rounded=0;" edge="1" parent="1">
          <mxGeometry width="50" height="50" relative="1" as="geometry">
            <mxPoint x="110" y="180" as="sourcePoint" />
            <mxPoint x="110" y="140" as="targetPoint" />
          </mxGeometry>
        </mxCell>
        <mxCell id="451BlDNpqoZqQwi88xqd-23" value="Text" style="text;html=1;strokeColor=none;fillColor=none;align=center;verticalAlign=middle;whiteSpace=wrap;rounded=0;" vertex="1" parent="1">
          <mxGeometry x="390" y="350" width="60" height="30" as="geometry" />
        </mxCell>
        <mxCell id="451BlDNpqoZqQwi88xqd-24" value="Text" style="text;html=1;strokeColor=none;fillColor=none;align=center;verticalAlign=middle;whiteSpace=wrap;rounded=0;" vertex="1" parent="1">
          <mxGeometry x="390" y="350" width="60" height="30" as="geometry" />
        </mxCell>
        <mxCell id="451BlDNpqoZqQwi88xqd-25" value="PK" style="text;html=1;strokeColor=none;fillColor=none;align=center;verticalAlign=middle;whiteSpace=wrap;rounded=0;rotation=0;fontSize=14;" vertex="1" parent="1">
          <mxGeometry x="386.25" y="438.75" width="30" height="42.5" as="geometry" />
        </mxCell>
        <mxCell id="451BlDNpqoZqQwi88xqd-26" value="PK" style="text;html=1;strokeColor=none;fillColor=none;align=center;verticalAlign=middle;whiteSpace=wrap;rounded=0;fontSize=16;" vertex="1" parent="1">
          <mxGeometry x="70" y="140" width="40" height="40" as="geometry" />
        </mxCell>
        <mxCell id="451BlDNpqoZqQwi88xqd-29" value="&lt;div&gt;PK&lt;/div&gt;" style="text;html=1;strokeColor=none;fillColor=none;align=center;verticalAlign=middle;whiteSpace=wrap;rounded=0;fontSize=14;" vertex="1" parent="1">
          <mxGeometry x="376.25" y="145" width="40" height="30" as="geometry" />
        </mxCell>
        <mxCell id="451BlDNpqoZqQwi88xqd-31" value="module_id short text (255) NOT NULL" style="text;html=1;strokeColor=none;fillColor=none;align=center;verticalAlign=middle;whiteSpace=wrap;rounded=0;fontSize=10;" vertex="1" parent="1">
          <mxGeometry x="430" y="445" width="180" height="30" as="geometry" />
        </mxCell>
        <mxCell id="451BlDNpqoZqQwi88xqd-32" value="Text" style="text;html=1;strokeColor=none;fillColor=none;align=center;verticalAlign=middle;whiteSpace=wrap;rounded=0;" vertex="1" parent="1">
          <mxGeometry x="390" y="350" width="60" height="30" as="geometry" />
        </mxCell>
        <mxCell id="451BlDNpqoZqQwi88xqd-34" value="&lt;div style=&quot;font-size: 9px;&quot;&gt;student_id short text (255) NOT NULL&lt;/div&gt;&lt;div style=&quot;font-size: 9px;&quot;&gt;module_id short text (255) NOT NULL&lt;br&gt;&lt;/div&gt;" style="text;html=1;strokeColor=none;fillColor=none;align=center;verticalAlign=middle;whiteSpace=wrap;rounded=0;" vertex="1" parent="1">
          <mxGeometry x="425" y="145" width="175" height="30" as="geometry" />
        </mxCell>
        <mxCell id="451BlDNpqoZqQwi88xqd-35" value="student_id short text (255) NOT NULL" style="text;html=1;strokeColor=none;fillColor=none;align=center;verticalAlign=middle;whiteSpace=wrap;rounded=0;fontSize=9;" vertex="1" parent="1">
          <mxGeometry x="120" y="145" width="160" height="30" as="geometry" />
        </mxCell>
        <mxCell id="451BlDNpqoZqQwi88xqd-36" value="&lt;div style=&quot;font-size: 9px;&quot;&gt;student_surname short text (255) NOT NULL&lt;/div&gt;&lt;div&gt;&lt;font style=&quot;font-size: 9px;&quot;&gt;student_firstname short text (255) NOT NULL&lt;/font&gt;&lt;/div&gt;&lt;div&gt;&lt;font style=&quot;font-size: 9px;&quot;&gt;student_email short text (255) NOT NULL&lt;br&gt;&lt;/font&gt;&lt;/div&gt;" style="text;html=1;strokeColor=none;fillColor=none;align=center;verticalAlign=middle;whiteSpace=wrap;rounded=0;" vertex="1" parent="1">
          <mxGeometry x="80" y="190" width="210" height="120" as="geometry" />
        </mxCell>
        <mxCell id="451BlDNpqoZqQwi88xqd-37" value="&lt;div style=&quot;font-size: 11px;&quot;&gt;module_name short text (255) NOT NULL&lt;/div&gt;&lt;div style=&quot;font-size: 11px;&quot;&gt;&lt;font size=&quot;1&quot;&gt;module_location short text (255) NOT NULL&lt;/font&gt;&lt;/div&gt;&lt;div style=&quot;font-size: 11px;&quot;&gt;&lt;font size=&quot;1&quot;&gt;module_start_time int NOT NULL&lt;/font&gt;&lt;/div&gt;&lt;div style=&quot;font-size: 11px;&quot;&gt;&lt;font size=&quot;1&quot;&gt;module_end_time int NOT NULL &lt;/font&gt;&lt;br&gt;&lt;/div&gt;&lt;div&gt;&lt;br&gt;&lt;/div&gt;" style="text;html=1;strokeColor=none;fillColor=none;align=center;verticalAlign=middle;whiteSpace=wrap;rounded=0;" vertex="1" parent="1">
          <mxGeometry x="395" y="485" width="215" height="125" as="geometry" />
        </mxCell>
        <mxCell id="451BlDNpqoZqQwi88xqd-39" value="&lt;div&gt;year_of_enrol int NOT NULL&lt;/div&gt;&lt;div&gt;semester int NOT NULL&lt;br&gt;&lt;/div&gt;" style="text;html=1;strokeColor=none;fillColor=none;align=center;verticalAlign=middle;whiteSpace=wrap;rounded=0;" vertex="1" parent="1">
          <mxGeometry x="386.25" y="190" width="213.75" height="120" as="geometry" />
        </mxCell>
        <mxCell id="451BlDNpqoZqQwi88xqd-40" value="" style="edgeStyle=entityRelationEdgeStyle;fontSize=12;html=1;endArrow=ERoneToMany;rounded=0;" edge="1" parent="1">
          <mxGeometry width="100" height="100" relative="1" as="geometry">
            <mxPoint x="300" y="230" as="sourcePoint" />
            <mxPoint x="380" y="130" as="targetPoint" />
          </mxGeometry>
        </mxCell>
        <mxCell id="451BlDNpqoZqQwi88xqd-43" value="" style="edgeStyle=entityRelationEdgeStyle;fontSize=12;html=1;endArrow=ERoneToMany;rounded=0;" edge="1" parent="1" target="451BlDNpqoZqQwi88xqd-39">
          <mxGeometry width="100" height="100" relative="1" as="geometry">
            <mxPoint x="620" y="440" as="sourcePoint" />
            <mxPoint x="370" y="260" as="targetPoint" />
            <Array as="points">
              <mxPoint x="710" y="225" />
              <mxPoint x="790" y="375" />
              <mxPoint x="650" y="300" />
              <mxPoint x="610" y="280" />
              <mxPoint x="600" y="220" />
              <mxPoint x="610" y="230" />
              <mxPoint x="610" y="230" />
              <mxPoint x="660" y="143" />
              <mxPoint x="650" y="180" />
              <mxPoint x="680" y="240" />
              <mxPoint x="740" y="230" />
              <mxPoint x="810" y="365" />
              <mxPoint x="720" y="225" />
            </Array>
          </mxGeometry>
        </mxCell>
      </root>
    </mxGraphModel>
  </diagram>
</mxfile>
